<?xml version="1.0" standalone="no"?><!DOCTYPE svg PUBLIC "-//W3C//DTD SVG 1.1//EN" "http://www.w3.org/Graphics/SVG/1.1/DTD/svg11.dtd"><svg t="1521796521804" class="icon" style="" viewBox="0 0 1040 1024" version="1.1" xmlns="http://www.w3.org/2000/svg" p-id="1362" xmlns:xlink="http://www.w3.org/1999/xlink" width="203.125" height="200"><defs><style type="text/css"></style></defs><path d="M320.117808 872.119871 508.431731 746.576573l16.111956-10.740622 19.364023 0 351.742063 0c35.278481 0 64.002686-28.67611 64.002686-63.953567L959.65246 160.255891c0-35.228339-28.724205-63.903425-64.002686-63.903425L128.259152 96.352465c-35.278481 0-63.953567 28.675086-63.953567 63.903425l0 511.627517c0 35.277458 28.675086 63.953567 63.953567 63.953567l127.906112 0 63.953567 0 0 63.952544L320.118831 872.119871M256.165264 991.600079 256.165264 799.789519 128.259152 799.789519c-70.605058 0-127.908158-57.251935-127.908158-127.906112L0.350994 160.255891c0-70.604034 57.3031-127.85597 127.908158-127.85597l767.389598 0c70.654176 0 127.957277 57.251935 127.957277 127.85597l0 511.627517c0 70.654176-57.3031 127.906112-127.957277 127.906112L543.906687 799.789519 256.165264 991.600079 256.165264 991.600079 256.165264 991.600079z" p-id="1363"></path></svg>